<?xml version="1.0" encoding="UTF-8" standalone="no"?> <!-- Created with Vectornator for iOS (http://vectornator.io/) --><!DOCTYPE svg PUBLIC "-//W3C//DTD SVG 1.1//EN" "http://www.w3.org/Graphics/SVG/1.1/DTD/svg11.dtd">
<svg width="100%" style="fill-rule:nonzero;clip-rule:evenodd;stroke-linecap:round;stroke-linejoin:round;" viewBox="0 0 20 20" height="100%" xmlns:xlink="http://www.w3.org/1999/xlink" version="1.1" xmlns="http://www.w3.org/2000/svg" xml:space="preserve" xmlns:vectornator="http://vectornator.io">
<metadata>
<vectornator:setting key="WDSnapToPoints" value="false"/>
<vectornator:setting value="true" key="VNSnapToGuides"/>
<vectornator:setting key="WDIsolateActiveLayer" value="false"/>
<vectornator:setting key="WDDisplayWhiteBackground" value="false"/>
<vectornator:setting key="WDSnapToEdges" value="false"/>
<vectornator:setting key="WDCMYKEnabledKey" value="false"/>
<vectornator:setting key="WDUnits" value="Points"/>
<vectornator:setting value="false" key="IsTimeLapseWatermarkDisabled"/>
<vectornator:setting value="false" key="WDSnapToGrid"/>
<vectornator:setting key="UndoHistoryDisabled" value="true"/>
<vectornator:setting value="true" key="WDRulersVisible"/>
<vectornator:setting value="true" key="VNDimensionsVisible"/>
<vectornator:setting value="true" key="WDDynamicGuides"/>
<vectornator:setting key="WDGuidesVisible" value="true"/>
<vectornator:setting key="WDOutlineMode" value="false"/>
</metadata>
<defs/>
<g vectornator:layerName="矢量图层" id="矢量图层">
<path opacity="1" d="M7.53125+1.6875C7.04419+1.70715+6.61657+2.03554+6.375+2.65625C6.169+3.1857+6.03335+3.68067+5.84375+4.5625C5.83642+4.59661+5.79372+4.81737+5.78125+4.875C5.5889+5.76383+5.42244+6.68473+5.28125+7.65625C5.21593+8.10555+5.1529+8.50381+5.03125+9.28125C5.02766+9.30421+4.90668+10.0593+4.90625+10.0625C4.89875+10.1177+4.87521+10.2797+4.875+10.2812C4.84185+10.514+4.8273+10.6159+4.8125+10.75C4.79096+10.9448+4.77863+11.1271+4.75+11.4375C4.74843+11.4545+4.69907+11.7887+4.6875+11.9062C4.63977+12.3917+4.6381+12.8036+4.625+13.1875C4.60029+13.9138+4.59993+14.6558+4.625+15.5C4.62676+15.5596+4.62358+15.6069+4.625+15.7188C4.62532+15.7441+4.62473+15.7625+4.625+15.7812C4.60625+15.7768+4.58163+15.7836+4.5625+15.7812C3.94294+15.7034+3.51044+15.5195+3.28125+15.2812C3.10538+15.0984+3.03583+14.8711+3.0625+14.5938C3.11934+14.0026+3.62945+13.301+4.1875+13.0312C4.45269+12.9031+4.5657+12.5777+4.4375+12.3125C4.34135+12.1136+4.14508+12.0208+3.9375+12.0312C3.86831+12.0347+3.78505+12.0305+3.71875+12.0625C2.83288+12.4907+2.09336+13.5291+2+14.5C1.94466+15.0755+2.13023+15.6143+2.53125+16.0312C2.94133+16.4576+3.55086+16.703+4.375+16.8125L4.75+16.9062C4.76088+16.9088+4.77038+16.9044+4.78125+16.9062C5.06964+17.6217+5.80377+18.2249+6.53125+18.25C6.58367+18.2518+6.62338+18.2467+6.71875+18.25C7.87605+18.2902+8.38367+18.3085+9.03125+18.3125C11.823+18.3296+13.875+18.3065+15.9062+18.25C16.8619+18.2234+17.7657+17.4748+17.9375+16.5625C17.9586+16.4504+17.9671+16.3218+17.9688+16.1875C17.9691+16.1624+17.9687+16.1363+17.9688+16.0938C17.969+15.9391+17.9555+15.8944+17.9688+15.8438C17.9728+15.8266+17.9976+15.799+18+15.7812C18.0024+15.7631+17.9994+15.7367+18+15.7188C18.0165+13.9244+17.9922+12.8196+17.875+11.6562C17.8645+11.5524+17.8148+11.2733+17.8125+11.25C17.7521+10.6255+17.7416+10.3062+17.6875+9.9375C17.4197+8.11434+17.2891+7.29667+17.0938+6.28125C17.0833+6.22696+17.0396+6.04351+17.0312+6C16.7759+4.66745+16.6624+4.08386+16.4688+3.34375C16.3338+2.82813+16.225+2.57711+16.0312+2.28125C15.6431+1.68837+14.9485+1.53806+14.3438+1.90625C14.0841+2.06433+13.8943+2.2411+13.6562+2.5625C13.3376+2.99248+13.0829+3.46195+12.7812+4.0625C12.3688+3.98652+11.9086+3.94343+11.375+3.9375C10.8128+3.93126+10.3264+3.97549+9.84375+4.0625C9.75714+3.8912+9.66993+3.72374+9.5625+3.53125C9.21773+2.91326+9.00312+2.55766+8.6875+2.21875C8.33388+1.83902+7.91008+1.67222+7.53125+1.6875ZM8.71875+6.90625C9.32993+6.92465+9.71697+7.38356+9.71875+7.9375C9.72047+8.48762+9.24341+8.91103+8.6875+8.90625C8.14311+8.9016+7.71582+8.46063+7.71875+7.90625C7.72162+7.36842+8.19003+6.89033+8.71875+6.90625ZM13.9688+6.90625C14.5002+6.89352+14.9358+7.36753+14.9375+7.90625C14.9394+8.46783+14.5285+8.90593+13.9688+8.90625C13.4272+8.90657+12.9627+8.4458+12.9688+7.90625C12.975+7.34365+13.365+6.92083+13.9688+6.90625ZM11.4375+9.53125C11.4534+9.5702+11.4837+9.65517+11.5312+9.71875C11.5957+9.8049+11.6652+9.84135+11.7188+9.84375C11.8042+9.84758+11.8731+9.83348+11.9688+9.78125C12.0249+9.7506+12.0735+9.70483+12.0938+9.6875C12.1691+9.6229+12.2791+9.64338+12.3438+9.71875C12.4084+9.79412+12.4191+9.90415+12.3438+9.96875C12.3059+10.0012+12.2369+10.0497+12.1562+10.0938C12.0079+10.1747+11.8481+10.226+11.6875+10.2188C11.5192+10.2112+11.3976+10.1101+11.2812+9.96875C11.1761+10.1004+11.0253+10.1918+10.8438+10.2188C10.7806+10.2281+10.7234+10.2327+10.6562+10.2188C10.5626+10.1993+10.4693+10.1464+10.375+10.0938C10.2971+10.0503+10.2265+9.99975+10.1875+9.96875C10.1098+9.90698+10.0945+9.79646+10.1562+9.71875C10.218+9.64104+10.3285+9.62573+10.4062+9.6875C10.4312+9.70732+10.4726+9.74851+10.5312+9.78125C10.5963+9.81754+10.6657+9.83273+10.7188+9.84375C10.7469+9.84959+10.7633+9.87767+10.7812+9.875C10.8742+9.86121+10.9462+9.79423+11+9.71875C11.0415+9.66045+11.0867+9.59491+11.0938+9.5625C11.1314+9.39007+11.3709+9.36781+11.4375+9.53125Z" fill="#9ca3af"/>
</g>
</svg>
