<?xml version="1.0" encoding="UTF-8" standalone="no"?> <!-- Created with Vectornator for iOS (http://vectornator.io/) --><!DOCTYPE svg PUBLIC "-//W3C//DTD SVG 1.1//EN" "http://www.w3.org/Graphics/SVG/1.1/DTD/svg11.dtd">
<svg xmlns:xlink="http://www.w3.org/1999/xlink" xmlns:vectornator="http://vectornator.io" xmlns="http://www.w3.org/2000/svg" height="100%" xml:space="preserve" style="fill-rule:nonzero;clip-rule:evenodd;stroke-linecap:round;stroke-linejoin:round;" width="100%" viewBox="0 0 20 20" version="1.1">
<metadata>
<vectornator:setting value="false" key="WDSnapToPoints"/>
<vectornator:setting key="VNSnapToGuides" value="true"/>
<vectornator:setting key="WDIsolateActiveLayer" value="false"/>
<vectornator:setting key="WDDisplayWhiteBackground" value="false"/>
<vectornator:setting key="WDSnapToEdges" value="false"/>
<vectornator:setting value="false" key="WDCMYKEnabledKey"/>
<vectornator:setting value="Points" key="WDUnits"/>
<vectornator:setting value="false" key="IsTimeLapseWatermarkDisabled"/>
<vectornator:setting value="false" key="WDSnapToGrid"/>
<vectornator:setting key="UndoHistoryDisabled" value="true"/>
<vectornator:setting key="WDRulersVisible" value="true"/>
<vectornator:setting key="VNDimensionsVisible" value="true"/>
<vectornator:setting key="WDDynamicGuides" value="true"/>
<vectornator:setting key="WDGuidesVisible" value="true"/>
<vectornator:setting key="WDOutlineMode" value="false"/>
</metadata>
<defs/>
<g id="矢量图层" vectornator:layerName="矢量图层">
<path fill-rule="evenodd" d="M10.0359+17.5365C9.68621+16.9917+9.38534+16.268+9.31215+15.8126C9.19831+15.0889+9.735+14.3407+10.3693+14.3407C11.215+14.3407+11.711+15.1864+11.4264+16.1378C11.2312+16.7965+10.5644+18+10.4018+18C10.3611+18+10.1985+17.7886+10.0359+17.5365ZM10.6539+16.6339C11.1255+15.715+10.9873+14.9913+10.3449+14.9913C10.1009+14.9913+9.83258+15.4467+9.88137+15.78C9.93829+16.146+10.3449+17.0323+10.4262+16.9754C10.4669+16.951+10.5726+16.7965+10.6539+16.6339Z" opacity="1" fill="#aaaaaa"/>
<path fill="#aaaaaa" opacity="1" d="M10.3125+2C10.3092+2.00002+10.3158+2.09226+10.3125+2.09375C9.87464+2.18178+9.12369+2.88653+8.6875+3.4375C7.5572+4.86868+7+6.58139+7+8.6875C7+9.5088+6.98884+9.6918+6.875+9.78125C6.61479+10.0008+6.10013+10.8627+5.9375+11.375C5.84805+11.6596+5.74314+12.2128+5.71875+12.5625L5.6875+13.1875L5.96875+13.1562C6.12325+13.1237+6.76385+13.0051+7.40625+12.875C8.04865+12.7449+8.58562+12.625+8.59375+12.625C8.61001+12.625+8.66183+12.7368+8.71875+12.875C8.84072+13.1677+9.27151+13.5099+9.71875+13.6562C9.85613+13.7029+10.0187+13.7288+10.3125+13.75C10.3603+13.7535+10.3477+13.7793+10.4062+13.7812C10.409+13.7811+10.4035+13.7502+10.4062+13.75C10.7+13.7288+10.8626+13.7029+11+13.6562C11.4472+13.5099+11.9093+13.1677+12.0312+12.875C12.0882+12.7368+12.14+12.625+12.1562+12.625C12.1644+12.625+12.7013+12.7449+13.3438+12.875C13.9862+13.0051+14.6267+13.1237+14.7812+13.1562L15.0625+13.1875L15+12.5625C14.9756+12.2128+14.8707+11.6596+14.7812+11.375C14.6186+10.8627+14.1352+10.0008+13.875+9.78125C13.7612+9.6918+13.7188+9.5088+13.7188+8.6875C13.7188+6.58139+13.1616+4.86868+12.0312+3.4375C11.5951+2.88653+10.8441+2.18178+10.4062+2.09375C10.403+2.09226+10.4096+2.00002+10.4062+2C10.398+1.99995+10.3835+2.03065+10.375+2.03125C10.3616+2.0298+10.3252+1.99992+10.3125+2ZM10.4062+2.96875C10.4306+2.96875+10.6473+3.07923+10.875+3.25C11.4523+3.68911+11.9997+4.43555+12.4062+5.28125C12.9429+6.38716+13.1075+7.09194+13.1562+8.53125L13.2188+9.75L13.4688+10.0625C13.8509+10.5097+14.1443+11.1551+14.25+11.7812C14.2988+12.074+14.3369+12.3275+14.3125+12.3438C14.2962+12.3681+13.7824+12.2551+13.1562+12.125C12.5301+12.003+11.9782+11.9144+11.9375+11.9062C11.8887+11.9062+11.7769+12.0249+11.6875+12.1875C11.5981+12.3501+11.3733+12.5818+11.2188+12.6875C10.5032+13.1673+9.60349+12.9356+9.15625+12.1875L8.96875+11.8438L7.78125+12.0938C7.13072+12.2239+6.55564+12.3056+6.53125+12.2812C6.44993+12.1999+6.67984+11.2272+6.875+10.8125C6.98071+10.5848+7.20423+10.2264+7.375+10.0312L7.6875+9.6875L7.65625+8.96875C7.5912+7.21231+8.1492+5.37728+9.125+4.125C9.40961+3.76721+10.2924+2.96875+10.4062+2.96875Z"/>
<path opacity="1" d="M10.4181+5.61951C9.61825+5.61951+8.96961+6.26308+8.96961+7.06288C8.96961+7.86268+9.61826+8.51133+10.4181+8.51133C11.2179+8.51135+11.8665+7.86268+11.8665+7.06288C11.8665+6.26308+11.2179+5.61951+10.4181+5.61951ZM10.3977+6.18365C10.8842+6.18365+11.277+6.57646+11.277+7.06288C11.277+7.54931+10.8842+7.94721+10.3977+7.94721C9.91131+7.94721+9.51341+7.54931+9.51341+7.06288C9.51341+6.57646+9.91131+6.18365+10.3977+6.18365Z" fill-rule="evenodd" fill="#aaaaaa"/>
</g>
</svg>
