<?xml version="1.0" standalone="no"?>
<!DOCTYPE svg PUBLIC "-//W3C//DTD SVG 20010904//EN"
 "http://www.w3.org/TR/2001/REC-SVG-20010904/DTD/svg10.dtd">
<svg version="1.0" xmlns="http://www.w3.org/2000/svg"
 width="900.000000pt" height="900.000000pt" viewBox="0 0 900.000000 900.000000"
 preserveAspectRatio="xMidYMid meet" >
<g transform="translate(0.000000,900.000000) scale(0.100000,-0.100000)"
fill="#9ca3af" stroke="#9ca3af">
<path  d="M4200 7833 c-41 -8 -96 -21 -122 -29 -26 -8 -54 -14 -62 -14 -8 0
-30 -6 -48 -14 -18 -8 -58 -24 -88 -36 -72 -29 -167 -76 -205 -100 -16 -11
-37 -23 -45 -27 -32 -15 -188 -137 -248 -195 -114 -109 -269 -302 -305 -378
-4 -8 -16 -28 -26 -45 -22 -34 -117 -222 -137 -272 -34 -81 -42 -100 -54 -133
-7 -19 -15 -48 -18 -65 -2 -16 -11 -39 -18 -50 -8 -11 -14 -31 -14 -46 0 -15
-7 -40 -15 -55 -8 -16 -15 -43 -15 -60 0 -18 -7 -45 -15 -60 -8 -16 -15 -45
-15 -65 0 -20 -7 -56 -15 -79 -8 -23 -15 -63 -15 -89 0 -25 -5 -62 -11 -81
-11 -33 -19 -141 -37 -460 -4 -74 -11 -141 -15 -147 -5 -7 -17 -13 -27 -13
-20 0 -172 -87 -178 -102 -2 -4 -10 -8 -17 -8 -8 0 -18 -6 -22 -13 -4 -7 -33
-28 -63 -46 -190 -116 -511 -401 -657 -583 -32 -40 -61 -75 -64 -78 -9 -8
-135 -184 -142 -200 -4 -8 -21 -37 -37 -65 -17 -27 -49 -88 -71 -135 -22 -47
-47 -97 -55 -112 -8 -14 -14 -34 -14 -45 0 -10 -7 -27 -15 -37 -8 -11 -15 -29
-15 -40 0 -11 -6 -38 -14 -61 -89 -258 -91 -649 -5 -900 6 -16 14 -44 18 -60
4 -17 12 -39 18 -50 5 -11 17 -35 26 -53 9 -19 17 -42 17 -52 0 -10 5 -22 11
-25 5 -4 15 -17 20 -28 5 -12 18 -35 29 -52 11 -16 25 -41 31 -55 5 -14 21
-39 35 -57 13 -17 24 -35 24 -38 0 -15 134 -178 198 -241 59 -58 213 -184 225
-184 3 0 29 -16 58 -36 94 -63 301 -153 399 -173 19 -4 45 -13 57 -19 12 -7
38 -12 57 -12 19 0 61 -7 93 -15 84 -23 547 -23 653 -1 41 9 89 16 107 16 17
0 44 5 60 11 15 7 48 15 73 20 53 9 121 27 170 44 19 7 51 18 70 24 19 7 49
16 65 21 17 5 55 18 85 30 30 12 67 24 82 27 15 3 33 11 39 19 6 8 18 14 26
14 8 0 27 6 41 14 15 7 45 22 67 31 22 10 47 21 55 26 8 4 65 33 125 64 136
70 154 80 168 94 12 12 67 15 67 4 0 -16 187 -117 380 -205 36 -16 77 -36 92
-44 14 -8 33 -14 41 -14 9 0 28 -6 44 -14 59 -29 104 -46 126 -46 12 0 31 -7
41 -15 11 -8 32 -15 46 -15 14 0 31 -5 37 -11 6 -6 29 -15 50 -19 58 -12 135
-30 168 -42 17 -5 62 -14 100 -18 39 -5 93 -14 120 -21 81 -18 566 -14 638 5
32 9 72 16 90 16 18 1 43 7 57 15 14 8 36 14 50 15 14 0 38 7 54 15 15 8 34
15 42 15 26 0 219 91 304 144 155 95 318 241 421 377 32 43 59 81 59 84 0 4
13 24 28 44 16 20 39 56 51 81 34 67 48 91 60 103 6 6 11 21 11 33 0 12 7 27
15 34 8 7 15 22 15 34 0 11 7 30 15 40 8 11 15 28 15 38 0 9 6 32 14 50 19 46
38 123 47 193 4 33 13 106 20 163 11 83 11 121 0 205 -7 56 -16 131 -20 167
-4 36 -13 78 -19 93 -7 16 -12 38 -12 50 0 12 -7 35 -15 51 -8 15 -15 38 -15
50 0 12 -7 31 -15 42 -8 10 -15 27 -15 37 0 11 -6 31 -14 45 -7 15 -37 74 -65
132 -29 58 -61 119 -71 135 -11 17 -23 37 -27 45 -10 23 -47 75 -55 78 -5 2
-8 8 -8 14 0 10 -53 84 -75 103 -6 6 -32 37 -57 70 -106 137 -313 334 -503
479 -44 33 -84 64 -90 69 -49 38 -105 77 -110 77 -4 0 -24 13 -44 28 -20 16
-43 32 -51 35 -8 4 -28 16 -45 27 -16 11 -37 23 -45 27 -8 4 -33 19 -54 35
-21 15 -45 28 -51 28 -7 0 -18 7 -25 15 -15 18 -50 20 -50 3 0 -7 27 -33 60
-58 33 -24 60 -50 60 -57 0 -7 19 -21 43 -31 23 -11 54 -32 69 -46 15 -14 34
-26 43 -26 8 0 15 -4 15 -8 0 -5 24 -24 53 -42 28 -18 80 -60 114 -92 34 -32
66 -58 71 -58 6 0 30 -16 53 -36 24 -20 54 -40 66 -45 16 -6 22 -15 20 -31 -1
-18 3 -23 19 -21 18 2 23 -5 30 -40 8 -39 12 -42 44 -45 19 -2 44 -13 57 -25
12 -12 30 -29 38 -37 47 -43 105 -117 105 -133 0 -10 26 -44 58 -75 77 -77
122 -136 122 -161 0 -11 9 -25 20 -31 11 -6 20 -17 20 -24 0 -8 8 -13 18 -12
13 1 16 -5 14 -25 -1 -18 7 -37 26 -57 43 -46 62 -78 62 -105 0 -13 9 -32 20
-42 11 -10 20 -28 20 -40 0 -11 5 -26 12 -33 8 -8 8 -15 0 -25 -9 -11 -5 -21
19 -48 25 -29 29 -39 24 -68 -5 -25 -2 -38 13 -55 24 -25 38 -81 23 -91 -16
-9 -13 -43 5 -53 15 -9 40 -141 31 -166 -3 -7 -2 -18 2 -25 4 -7 4 -35 -1 -64
-4 -29 -10 -95 -12 -147 -3 -53 -10 -108 -17 -123 -10 -21 -10 -30 -1 -39 18
-18 14 -45 -7 -51 -15 -3 -21 -17 -26 -53 -3 -27 -11 -59 -16 -71 -5 -13 -13
-33 -18 -45 -4 -13 -18 -44 -30 -69 -11 -25 -21 -49 -21 -52 0 -4 -15 -30 -33
-59 -19 -29 -32 -58 -30 -65 2 -6 -7 -19 -21 -28 -16 -10 -23 -22 -19 -32 4
-9 -1 -19 -10 -25 -10 -5 -17 -15 -17 -22 0 -8 -13 -16 -29 -19 -19 -4 -32
-14 -36 -29 -4 -12 -17 -30 -29 -39 -18 -15 -19 -21 -9 -38 12 -19 9 -23 -37
-46 -32 -16 -50 -32 -50 -43 0 -23 -19 -42 -42 -42 -9 0 -27 -13 -40 -30 -13
-18 -31 -30 -45 -30 -16 0 -24 -7 -29 -25 -6 -25 -35 -41 -66 -36 -9 1 -19 -7
-23 -18 -3 -10 -20 -30 -38 -44 -49 -37 -168 -97 -194 -97 -12 0 -28 -8 -35
-19 -11 -16 -68 -32 -128 -36 -28 -2 -75 -18 -81 -28 -8 -12 -96 -30 -134 -27
-45 4 -59 3 -198 -14 -71 -9 -134 -13 -140 -9 -7 4 -37 8 -67 10 -145 6 -264
21 -350 43 -19 5 -69 14 -110 21 -80 13 -109 24 -126 47 -5 8 -32 16 -60 18
-77 5 -225 52 -232 73 -2 6 -15 11 -28 11 -13 0 -24 5 -24 10 0 6 -14 10 -30
10 -17 0 -38 4 -48 8 -9 5 -51 25 -92 45 -41 21 -81 37 -88 37 -8 0 -48 18
-89 40 -55 29 -88 40 -120 40 -24 0 -43 4 -43 10 0 5 27 31 60 57 56 45 58 48
34 51 -16 2 -38 -6 -59 -22 -18 -14 -40 -26 -48 -26 -8 0 -20 -7 -27 -15 -10
-12 -27 -14 -79 -10 -60 5 -63 4 -38 -8 15 -7 24 -17 20 -21 -17 -17 -73 -34
-92 -29 -31 8 -81 -16 -81 -39 0 -24 -81 -61 -115 -52 -16 4 -30 -1 -44 -15
-11 -11 -33 -23 -48 -27 -16 -4 -39 -17 -52 -31 -12 -13 -29 -22 -36 -19 -8 3
-32 -4 -54 -15 -22 -10 -56 -19 -76 -19 -22 0 -52 -11 -78 -27 -53 -35 -136
-61 -252 -79 -49 -8 -101 -20 -115 -28 -14 -7 -50 -14 -80 -14 -31 0 -84 -8
-119 -17 -47 -12 -83 -15 -136 -10 -44 4 -75 3 -78 -3 -8 -11 -179 -6 -252 8
-142 27 -228 39 -237 34 -5 -3 -29 4 -53 15 -24 11 -63 25 -85 30 -23 5 -49
16 -58 24 -9 8 -33 18 -52 22 -19 4 -48 18 -63 31 -16 13 -37 24 -48 24 -10 0
-29 11 -41 25 -12 14 -29 25 -38 25 -25 0 -60 29 -60 51 0 14 -7 19 -25 19
-16 0 -25 6 -25 15 0 8 -8 15 -19 15 -10 0 -25 7 -32 17 -8 9 -29 22 -48 30
-30 13 -33 17 -27 44 5 27 4 29 -28 29 -35 0 -51 14 -99 85 -15 22 -45 65 -67
95 -21 30 -39 63 -39 73 -1 9 -11 22 -24 28 -20 9 -43 48 -63 104 -4 11 -15
29 -25 40 -19 21 -59 120 -59 145 0 8 -11 36 -25 62 -14 26 -25 58 -25 71 0
14 -6 40 -14 59 -28 66 -49 445 -26 473 4 5 10 35 13 65 13 133 48 281 74 311
7 8 13 24 13 35 0 11 11 36 25 56 14 20 22 44 19 52 -3 8 4 29 15 45 12 16 21
33 21 38 0 13 44 53 58 53 8 0 9 11 5 31 -5 25 -1 35 21 55 14 14 26 32 26 41
0 23 46 80 70 88 11 3 20 15 20 25 0 24 41 88 60 95 14 5 28 22 70 93 9 14 31
31 50 37 25 9 36 19 42 42 4 17 23 44 42 59 45 39 67 59 96 89 13 14 29 25 35
25 5 0 32 25 58 55 27 30 54 55 62 55 7 0 23 14 35 30 12 17 34 37 50 45 26
13 30 13 44 -1 15 -14 17 -14 22 3 16 52 25 62 58 72 39 10 68 31 136 95 25
24 55 46 68 50 12 4 29 21 37 37 9 16 20 29 25 29 17 0 39 -147 44 -294 3
-109 8 -153 18 -160 9 -8 13 -38 14 -94 1 -46 7 -88 13 -96 7 -8 14 -37 15
-65 2 -28 9 -58 15 -65 7 -8 11 -29 10 -47 -1 -19 6 -54 14 -79 16 -47 32
-107 46 -173 5 -21 14 -44 20 -50 6 -6 11 -22 11 -37 0 -14 7 -34 15 -44 8
-11 15 -28 15 -37 0 -10 6 -30 14 -46 7 -15 21 -46 31 -68 9 -22 23 -53 30
-70 30 -69 127 -264 155 -310 16 -27 34 -59 40 -70 18 -34 34 -59 60 -95 26
-36 44 -64 56 -89 4 -8 14 -22 21 -30 8 -9 41 -54 75 -101 85 -116 226 -278
304 -348 35 -31 64 -63 64 -69 0 -7 -12 -15 -27 -19 -16 -3 -38 -10 -51 -15
-13 -5 -30 -9 -38 -9 -9 0 -30 -6 -47 -13 -30 -13 -81 -29 -200 -61 -164 -45
-463 -60 -602 -31 -102 21 -214 55 -221 66 -3 5 -16 9 -28 9 -13 0 -29 7 -36
15 -7 8 -21 15 -31 15 -11 0 -19 4 -19 9 0 5 -10 13 -22 17 -29 9 -38 17 -128
105 -76 75 -85 86 -126 171 -57 118 -87 258 -74 348 5 30 11 80 15 110 7 62
31 152 51 192 8 14 14 36 14 47 0 12 4 21 10 21 5 0 13 12 16 26 7 28 52 115
89 174 74 117 215 273 411 457 42 39 22 68 -22 34 -15 -12 -32 -21 -39 -21 -7
0 -15 -7 -18 -15 -4 -8 -24 -23 -46 -34 -22 -12 -42 -29 -46 -40 -3 -10 -19
-24 -35 -31 -17 -7 -30 -21 -32 -33 -2 -14 -17 -28 -40 -39 -25 -12 -40 -27
-47 -51 -7 -19 -32 -56 -56 -83 -25 -27 -45 -52 -45 -56 0 -4 -18 -28 -40 -53
-22 -25 -40 -55 -40 -66 0 -11 -10 -36 -23 -57 -22 -36 -54 -111 -92 -217 -10
-27 -21 -79 -25 -115 -4 -36 -12 -74 -18 -86 -7 -14 -8 -57 -2 -145 9 -132 22
-178 86 -317 19 -40 34 -76 34 -81 0 -4 18 -22 40 -40 22 -17 40 -38 40 -46 0
-8 13 -21 28 -29 16 -8 35 -22 43 -32 19 -23 79 -60 174 -107 44 -22 82 -44
83 -49 2 -4 25 -8 50 -9 26 0 41 -3 35 -6 -14 -5 -18 -33 -5 -33 4 0 12 4 18
9 5 5 45 3 99 -5 111 -18 422 -22 452 -6 12 7 41 9 71 5 39 -4 58 -2 76 11 14
9 36 16 48 16 13 0 32 6 43 13 11 7 49 21 85 31 36 9 81 26 100 36 19 11 54
28 76 39 51 24 67 62 58 134 -5 37 -12 51 -25 54 -11 3 -19 13 -19 23 0 10 -7
21 -15 24 -9 3 -21 19 -26 36 -6 16 -16 30 -21 30 -6 0 -33 24 -61 53 -28 28
-54 50 -57 49 -6 -5 -47 71 -52 96 -2 9 -10 17 -18 17 -19 0 -60 36 -60 52 0
7 -15 35 -33 61 -19 26 -37 59 -40 75 -4 15 -12 27 -17 27 -6 0 -17 18 -26 40
-9 22 -24 46 -33 53 -9 6 -30 38 -46 70 -15 31 -32 57 -37 57 -5 0 -16 17 -25
38 -8 20 -21 41 -29 45 -8 4 -14 21 -14 37 0 17 -4 30 -8 30 -13 0 -32 47 -32
76 0 17 -8 27 -25 34 -15 6 -27 20 -30 37 -3 15 -15 51 -26 78 -10 28 -19 62
-19 75 0 14 -9 31 -20 38 -13 8 -20 23 -20 42 0 27 -5 42 -36 115 -7 17 -20
50 -30 75 -10 25 -26 56 -36 69 -10 13 -18 36 -18 51 0 15 -6 33 -14 39 -7 6
-16 35 -20 64 -11 90 -41 245 -49 253 -4 4 -7 42 -7 85 0 43 -5 124 -11 180
-11 101 -5 181 22 291 5 21 11 111 13 200 2 90 8 174 14 188 6 14 14 34 18 45
5 11 9 49 9 85 1 77 23 248 36 272 5 9 9 34 9 56 0 23 6 45 15 52 8 7 15 27
15 45 0 18 7 38 15 45 8 7 15 25 15 41 0 15 5 31 11 35 6 3 9 19 5 34 -3 15
-2 30 1 34 4 3 17 34 29 69 40 113 49 132 77 168 15 20 27 44 28 55 1 33 23
81 52 113 15 17 27 38 27 47 0 16 19 45 101 152 20 26 38 53 40 59 7 21 138
151 159 158 11 4 20 13 20 22 0 8 19 33 43 54 41 38 67 49 67 29 0 -5 7 -10
16 -10 11 0 14 5 10 16 -8 20 20 55 38 48 7 -3 17 6 23 18 6 13 23 30 39 38
16 8 43 24 59 36 57 41 207 100 315 124 30 7 62 16 70 20 27 14 133 27 225 29
50 1 107 7 127 12 26 7 47 6 76 -4 25 -9 47 -11 63 -5 13 5 35 6 49 2 21 -7
65 -11 140 -15 24 -1 94 -30 102 -42 3 -6 27 -12 52 -13 24 -2 63 -12 85 -23
22 -12 49 -21 59 -21 11 0 31 -9 45 -20 14 -11 45 -29 68 -40 80 -38 107 -55
133 -82 14 -16 33 -28 43 -28 19 0 45 -23 88 -76 14 -18 38 -34 55 -38 17 -3
33 -13 37 -23 4 -10 22 -32 40 -51 26 -26 32 -38 27 -57 -6 -26 10 -35 20 -12
4 9 9 7 18 -6 7 -10 28 -34 46 -54 17 -19 32 -41 32 -48 0 -7 20 -33 44 -58
24 -25 52 -67 62 -94 10 -26 33 -62 50 -78 24 -23 34 -43 39 -78 5 -31 14 -51
26 -58 11 -5 19 -17 19 -27 0 -9 9 -23 21 -30 16 -10 20 -21 16 -45 -5 -38 9
-96 30 -119 9 -10 17 -32 18 -50 1 -18 18 -72 38 -119 27 -65 35 -96 31 -121
-5 -29 -3 -35 20 -46 23 -10 25 -15 16 -32 -8 -14 -8 -26 0 -40 6 -11 10 -42
9 -69 -1 -28 3 -57 10 -65 7 -8 14 -53 16 -99 3 -69 1 -86 -11 -91 -10 -4 -13
-13 -8 -33 4 -16 11 -31 16 -34 4 -3 13 -54 19 -115 6 -60 14 -124 18 -143 7
-36 25 -51 33 -29 8 23 -10 382 -21 418 -6 19 -11 60 -11 91 0 31 -6 75 -14
97 -8 23 -20 72 -25 109 -6 37 -18 97 -26 133 -9 36 -20 84 -25 107 -13 59
-41 146 -51 158 -5 5 -9 17 -9 26 0 9 -14 50 -31 90 -17 41 -37 88 -44 104
-46 108 -160 307 -213 370 -4 6 -19 25 -32 44 -45 63 -64 85 -160 182 -137
139 -269 234 -435 314 -110 52 -131 61 -200 80 -33 10 -68 21 -77 26 -9 5 -45
13 -80 19 -35 6 -81 15 -103 20 -64 15 -448 10 -535 -7z"/>
<path d="M4362 7019 c-4 -4 -41 -16 -82 -29 -112 -33 -248 -104 -295 -153 -22
-23 -69 -69 -104 -101 -35 -33 -77 -83 -94 -110 -43 -71 -71 -103 -85 -98 -7
2 -12 -7 -12 -25 0 -15 -16 -54 -35 -86 -19 -32 -35 -66 -35 -76 0 -10 -7 -24
-15 -31 -8 -7 -15 -25 -15 -40 0 -15 -9 -39 -20 -53 -11 -14 -20 -39 -20 -57
0 -23 -5 -33 -20 -37 -15 -4 -19 -13 -19 -42 1 -20 -6 -74 -14 -121 -12 -69
-13 -106 -4 -197 6 -62 14 -113 18 -113 11 0 19 43 13 80 -3 19 0 55 5 80 45
199 66 282 78 310 6 14 19 50 29 80 10 30 24 66 31 80 7 14 13 30 13 36 0 16
67 140 118 217 90 138 265 298 392 359 121 58 146 63 300 63 157 0 182 -6 305
-67 150 -75 346 -264 412 -398 4 -8 17 -30 29 -48 12 -18 32 -54 44 -80 12
-26 26 -55 31 -64 18 -34 74 -200 84 -248 4 -19 11 -39 15 -45 4 -5 10 -28 13
-50 2 -22 9 -53 15 -70 6 -16 14 -48 19 -70 5 -26 14 -41 25 -43 15 -3 18 3
16 36 0 21 2 44 6 50 4 6 -2 29 -14 51 -12 24 -19 57 -18 80 1 26 -5 48 -15
59 -9 10 -20 40 -23 65 -4 26 -11 47 -15 47 -5 0 -9 17 -9 39 0 40 -22 105
-40 116 -5 3 -10 16 -10 29 0 12 -11 38 -25 56 -14 19 -28 51 -31 71 -5 28
-16 44 -45 65 -22 17 -43 44 -50 64 -7 19 -27 48 -45 66 -19 17 -34 39 -34 48
0 9 -4 16 -10 16 -5 0 -10 7 -10 15 0 8 -6 15 -14 15 -7 0 -20 7 -27 16 -7 9
-24 20 -36 25 -13 5 -28 20 -33 34 -6 15 -17 25 -29 25 -11 0 -33 11 -49 25
-17 14 -35 25 -40 25 -6 0 -15 6 -19 13 -11 17 -44 34 -94 47 -24 7 -51 18
-59 25 -8 7 -42 16 -75 20 -75 10 -264 12 -273 4z"/>
<path d="M4287 5853 c-4 -4 -63 -10 -130 -14 -113 -6 -158 -12 -307 -40 -30
-6 -80 -15 -110 -20 -30 -6 -59 -14 -65 -18 -5 -5 -25 -11 -44 -15 -33 -6 -71
-31 -71 -47 0 -13 162 2 184 17 11 8 41 14 66 14 25 0 83 8 130 17 47 9 114
15 149 14 35 -1 67 2 70 8 8 12 161 21 182 10 10 -5 29 -1 53 12 30 16 46 18
79 12 35 -7 42 -13 49 -41 8 -29 28 -45 28 -22 0 6 14 19 31 29 34 21 96 22
187 2 29 -6 73 -8 97 -4 31 4 45 2 45 -6 0 -8 20 -10 66 -7 44 3 74 -1 92 -10
15 -8 48 -14 74 -14 26 0 50 -5 53 -10 4 -6 10 -8 14 -6 4 3 43 -3 87 -13 80
-18 204 -18 204 0 0 5 -12 9 -28 9 -15 0 -36 6 -47 14 -11 7 -40 18 -65 24
-25 6 -63 15 -85 21 -125 30 -176 41 -203 41 -16 0 -42 5 -58 10 -64 22 -709
52 -727 33z"/>
<path d="M5544 5665 c24 -18 59 -20 54 -2 -3 6 -20 13 -39 15 -32 2 -33 1 -15
-13z"/>
<path d="M5650 5640 c0 -5 12 -10 26 -10 14 0 23 4 19 10 -3 6 -15 10 -26 10
-10 0 -19 -4 -19 -10z"/>
<path d="M5790 5580 c0 -5 11 -10 25 -10 14 0 25 5 25 10 0 6 -11 10 -25 10
-14 0 -25 -4 -25 -10z"/>
<path d="M5875 5550 c3 -5 13 -10 21 -10 8 0 14 5 14 10 0 6 -9 10 -21 10 -11
0 -17 -4 -14 -10z"/>
<path d="M3478 5437 c-11 -26 -10 -305 1 -311 5 -3 11 4 14 17 7 35 -7 314
-15 294z"/>
<path d="M6103 5437 c2 -7 14 -14 26 -15 28 -4 20 13 -9 21 -14 3 -20 1 -17
-6z"/>
<path d="M6160 5412 c0 -5 7 -15 15 -22 12 -10 19 -10 27 -2 14 14 11 17 -19
26 -13 4 -23 3 -23 -2z"/>
<path d="M3486 5038 c3 -29 6 -111 8 -183 4 -126 13 -176 35 -190 6 -3 11 -25
11 -47 0 -40 29 -151 56 -215 8 -17 14 -44 14 -61 0 -16 8 -40 19 -53 31 -41
52 -87 41 -94 -19 -12 -10 -42 15 -53 14 -7 25 -20 25 -31 0 -10 7 -24 15 -31
8 -7 15 -18 15 -24 0 -7 9 -29 20 -51 11 -22 20 -44 20 -51 0 -6 11 -27 23
-46 13 -19 27 -46 30 -59 5 -18 13 -25 29 -25 17 1 24 -7 32 -34 12 -37 63
-110 134 -189 23 -27 42 -53 42 -59 0 -6 9 -14 20 -17 11 -3 20 -13 20 -20 0
-8 8 -19 18 -24 23 -12 144 -155 154 -181 4 -11 15 -20 23 -20 9 0 37 -16 62
-35 25 -19 51 -35 58 -35 19 0 27 -30 13 -48 -11 -14 -10 -15 7 -8 11 5 38 13
59 18 23 5 58 26 82 48 24 22 55 42 70 46 31 8 64 33 64 49 0 6 19 25 43 43
23 18 47 47 53 64 10 31 21 41 57 52 9 3 17 15 17 26 0 13 10 24 25 30 15 6
25 17 25 29 0 10 7 24 15 31 8 7 15 18 15 25 0 6 9 20 20 30 11 10 20 23 20
29 0 6 14 26 30 44 17 18 30 38 30 45 0 12 49 88 65 99 5 4 16 0 23 -10 12
-15 13 -14 7 10 -5 21 2 47 30 105 20 43 48 92 61 110 13 17 24 38 24 45 0 7
9 28 20 46 11 18 20 41 20 51 0 10 13 49 29 87 50 118 74 184 77 215 2 16 9
40 16 52 7 12 14 36 15 52 6 74 10 102 17 113 9 15 -24 86 -35 75 -4 -4 -10
-24 -13 -43 -3 -20 -12 -52 -21 -72 -8 -21 -15 -46 -15 -57 0 -10 -7 -32 -15
-47 -8 -16 -15 -40 -15 -54 0 -14 -7 -34 -15 -44 -8 -11 -15 -30 -15 -42 0
-12 -6 -35 -14 -51 -8 -15 -22 -48 -32 -73 -9 -25 -29 -72 -44 -105 -15 -33
-31 -67 -34 -75 -3 -8 -10 -22 -15 -30 -5 -8 -19 -35 -31 -60 -12 -25 -30 -58
-41 -75 -10 -16 -22 -37 -26 -45 -3 -8 -18 -33 -32 -55 -14 -22 -30 -48 -36
-57 -36 -61 -155 -219 -235 -312 -14 -16 -85 -89 -158 -163 -121 -120 -172
-157 -172 -122 0 6 -59 70 -131 142 -72 73 -157 164 -188 202 -31 39 -58 72
-61 75 -19 18 -70 90 -70 98 0 6 -6 15 -12 19 -7 4 -18 17 -25 28 -118 195
-126 209 -153 265 -12 25 -26 52 -31 60 -5 8 -14 25 -19 38 -26 61 -62 140
-75 165 -8 16 -15 35 -15 44 0 8 -6 27 -14 41 -7 15 -21 54 -30 87 -10 33 -22
74 -28 90 -5 17 -13 48 -17 70 -4 22 -12 49 -18 60 -6 11 -14 50 -18 87 -3 37
-10 70 -15 73 -4 2 -11 40 -15 82 -6 67 -26 133 -40 133 -2 0 -2 -24 1 -52z"/>
<path d="M4480 5070 c-26 -14 -46 -18 -76 -14 -25 4 -44 2 -48 -5 -4 -6 -4
-11 1 -11 318 -12 612 -46 733 -86 25 -8 57 -14 71 -14 15 0 40 -7 55 -15 16
-8 38 -15 49 -15 11 0 45 -9 75 -20 75 -26 92 -26 88 3 -2 17 -11 23 -35 25
-21 2 -34 10 -38 23 -5 14 -15 19 -40 19 -19 0 -37 5 -40 10 -3 6 -30 10 -58
10 -29 0 -65 7 -81 15 -15 8 -48 15 -73 15 -30 0 -55 7 -74 21 -18 13 -38 19
-51 16 -12 -4 -53 1 -92 9 -43 9 -111 14 -171 13 -63 -2 -108 2 -122 9 -28 15
-31 15 -73 -8z"/>
<path d="M4006 5031 c-3 -5 -15 -7 -26 -4 -11 3 -48 -6 -82 -20 -35 -14 -75
-28 -90 -31 -43 -10 -34 -29 10 -23 76 11 157 30 169 39 7 5 17 7 23 3 14 -9
124 15 114 25 -14 12 -112 22 -118 11z"/>
<path d="M4160 5020 c0 -5 9 -10 20 -10 11 0 20 5 20 10 0 6 -9 10 -20 10 -11
0 -20 -4 -20 -10z"/>
<path d="M3675 4930 c-4 -6 6 -10 24 -10 16 0 33 5 36 10 4 6 -6 10 -24 10
-16 0 -33 -4 -36 -10z"/>
<path d="M6196 4462 c-2 -4 27 -34 66 -67 94 -80 244 -228 293 -290 22 -27 52
-63 67 -79 16 -17 28 -33 28 -37 0 -4 16 -31 35 -61 20 -29 43 -70 52 -90 9
-21 20 -38 25 -38 4 0 8 -8 8 -18 0 -10 7 -27 15 -38 8 -10 15 -28 15 -40 0
-11 7 -29 15 -40 8 -10 15 -29 15 -40 0 -12 6 -37 14 -55 7 -19 18 -86 24
-149 20 -203 -22 -364 -132 -505 -76 -97 -148 -154 -256 -205 -108 -51 -161
-70 -220 -80 -25 -4 -65 -13 -90 -19 -91 -24 -465 -4 -565 31 -16 5 -48 14
-70 19 -60 12 -127 33 -152 47 -12 6 -33 12 -47 12 -14 0 -28 5 -31 10 -10 17
-72 12 -79 -6 -9 -24 -8 -27 10 -20 9 3 29 -4 47 -17 43 -32 149 -77 180 -77
13 0 38 -7 53 -15 16 -8 37 -15 46 -15 10 0 34 -10 55 -22 31 -17 60 -22 158
-27 279 -12 524 1 547 30 7 9 29 20 49 23 21 4 42 13 49 21 7 8 27 15 45 15
18 0 38 7 45 15 7 8 16 13 20 10 14 -8 79 24 90 45 6 11 18 20 27 20 9 0 45
29 81 65 35 36 68 65 73 65 5 0 9 12 9 26 0 26 40 74 61 74 5 0 9 8 9 18 1 25
36 126 54 155 12 18 15 41 12 91 -3 44 1 79 9 101 16 38 14 117 -3 138 -7 8
-14 45 -16 83 -5 70 -21 129 -44 157 -7 8 -15 32 -18 54 -10 73 -15 84 -40 93
-19 8 -24 15 -19 29 3 11 1 22 -5 26 -5 3 -10 17 -10 29 0 15 -13 33 -35 50
-19 15 -35 31 -35 37 0 13 -36 62 -78 108 -18 20 -39 47 -47 61 -14 27 -103
107 -198 179 -32 24 -69 57 -82 73 -16 19 -33 28 -54 28 -16 0 -33 5 -36 10
-7 12 -32 13 -39 2z"/>
<path d="M6116 4310 c-15 -27 -24 -54 -21 -60 3 -5 -3 -26 -14 -47 -10 -21
-28 -57 -40 -79 -12 -23 -21 -55 -21 -72 0 -18 -14 -51 -36 -83 -19 -29 -38
-67 -41 -83 -11 -53 -131 -275 -169 -313 -12 -11 -24 -39 -28 -61 -5 -36 -10
-41 -29 -39 -17 1 -23 -4 -25 -23 -2 -14 -12 -33 -23 -43 -10 -10 -19 -24 -19
-31 0 -8 -7 -16 -15 -20 -8 -3 -15 -13 -15 -22 0 -28 -34 -93 -51 -99 -8 -3
-28 -26 -44 -51 -16 -25 -39 -54 -52 -64 -13 -10 -23 -25 -23 -33 0 -20 -26
-41 -35 -27 -9 15 -25 2 -25 -20 0 -10 -15 -31 -34 -47 -18 -15 -38 -38 -45
-50 -6 -12 -20 -25 -31 -28 -14 -4 -20 -15 -20 -34 0 -16 -10 -37 -25 -51 -14
-13 -25 -34 -25 -47 0 -29 12 -30 25 -1 6 13 22 28 36 35 31 15 136 125 238
248 58 72 121 154 121 160 0 3 19 32 43 63 24 31 47 64 51 72 11 24 29 53 56
90 29 40 58 92 97 170 16 30 34 61 40 68 7 7 13 19 13 25 0 7 20 54 45 105 25
51 45 97 45 102 0 4 8 23 17 42 9 18 22 45 30 60 7 14 13 33 13 41 0 8 7 28
15 43 8 16 15 41 15 56 0 14 5 28 11 30 6 2 15 24 20 48 28 135 21 154 -25 70z"/>
</g>
</svg>
